<svg xmlns="http://www.w3.org/2000/svg" viewBox="0 0 74.19 62.15"><defs><style>.cls-1{fill:#d9c79e;}</style></defs><g id="Layer_2" data-name="Layer 2"><g id="Layer_1-2" data-name="Layer 1"><path class="cls-1" d="M42.92,20.91h3.54V16.84l-4.18-4.15a7.3,7.3,0,0,0-.65-9.58L38.5,0h0L37.12,1.38A6.08,6.08,0,0,1,38.9,5.64a5,5,0,0,1-.79,2.78l-3.8-3.78-.69.69a5.47,5.47,0,0,0,0,7.71l.28.27a7.66,7.66,0,0,0-5.57,7.35V36.83h2V20.66A5.68,5.68,0,0,1,36,15h2.35L35,11.66a3.51,3.51,0,0,1-.59-4.18l3.78,3.77.69-.69a6.85,6.85,0,0,0,2-4.93c0-.16,0-.31,0-.47a5.34,5.34,0,0,1-.57,6.89l-.69.69,4.94,4.91V19H42.92a4.28,4.28,0,0,0-4.27,4.28V36.83h2V24.31a4.89,4.89,0,0,1,3.91,4.79v7.73h2V29.1a6.84,6.84,0,0,0-5.69-6.73A2.31,2.31,0,0,1,42.92,20.91Z"/><path class="cls-1" d="M15.46,40.21V46h-1V40.21Z"/><path class="cls-1" d="M21.24,45.13V46H16.55v-.77L20,41H16.55v-.82H21.2V41l-3.41,4.17Z"/><path class="cls-1" d="M27.66,40.21,25.23,46h-1l-2.43-5.75h1.1l1.82,4.55,1.83-4.55Z"/><path class="cls-1" d="M33.77,43.09a2.87,2.87,0,1,1-5.73,0,2.87,2.87,0,1,1,5.73,0Zm-4.7,0a1.86,1.86,0,1,0,3.68,0,1.86,1.86,0,1,0-3.68,0Z"/><path class="cls-1" d="M38.16,44.68H35.47L35,46H33.89l2.43-5.75h1L39.73,46H38.67Zm-.31-.79-1-2.55-1,2.55Z"/><path class="cls-1" d="M44.4,46l-1.24-2.45H41.61V46h-1V40.21h2.86a1.69,1.69,0,0,1,1.86,1.61,1.63,1.63,0,0,1-1.23,1.6L45.56,46Zm-2.79-3.23h1.78a.91.91,0,0,0,1-.91.87.87,0,0,0-1-.83H41.61Z"/><path class="cls-1" d="M47.39,41v1.65h3v.77h-3v1.73h3.19V46H46.4V40.21h4.18V41Z"/><path class="cls-1" d="M55.49,45.13V46H51.58V40.21h1v4.92Z"/><path class="cls-1" d="M57.54,41v1.65h3v.77h-3v1.73h3.19V46H56.55V40.21h4.18V41Z"/><path class="cls-1" d="M5.15,62.15A5,5,0,0,1,0,56.76a5.07,5.07,0,0,1,5.15-5.4,4.39,4.39,0,0,1,4.7,3.85H7.92A2.63,2.63,0,0,0,5.15,52.9c-2,0-3.28,1.61-3.28,3.86s1.29,3.87,3.28,3.87a2.59,2.59,0,0,0,2.71-2.27h2C9.45,60.75,7.76,62.15,5.15,62.15Z"/><path class="cls-1" d="M18.24,59.69H13.36L12.42,62H10.48L14.9,51.56h1.8L21.1,62H19.17Zm-4.75-11h1.36c.05.61.39,1,.94,1a1,1,0,0,0,1-1h1.33a2.1,2.1,0,0,1-2.33,2.06A2.09,2.09,0,0,1,13.49,48.72Zm4.18,9.54-1.88-4.64-1.86,4.64Z"/><path class="cls-1" d="M29.82,60.51V62h-7.1V51.56h1.81v8.95Z"/><path class="cls-1" d="M33.63,51.56V62h-1.8V51.56Z"/><path class="cls-1" d="M47,51.56V62H45.26V54.3l-3.54,4.06h-.24L38,54.3V62H36.18V51.56h1.63L41.6,56l3.79-4.4Z"/><path class="cls-1" d="M56.38,59.69H51.5L50.56,62H48.62L53,51.56h1.8L59.25,62H57.31Zm-.57-1.43-1.88-4.64-1.86,4.64Z"/><path class="cls-1" d="M69.83,51.56V62H68.2l-5.55-7.5V62H60.86V51.56h1.66L68,59.11V51.56Z"/><path class="cls-1" d="M74.19,51.56V62H72.38V51.56Z"/></g></g></svg>