<?xml version="1.0" encoding="utf-8"?>
<!-- Generator: Adobe Illustrator 25.2.0, SVG Export Plug-In . SVG Version: 6.00 Build 0)  -->
<svg version="1.1" id="Layer_1" xmlns="http://www.w3.org/2000/svg" xmlns:xlink="http://www.w3.org/1999/xlink" x="0px" y="0px"
	 viewBox="0 0 36.8 36.8" style="enable-background:new 0 0 36.8 36.8;" xml:space="preserve">
<style type="text/css">
	.st0{fill:#0C233F;}
</style>
<g id="Layer_2_1_">
	<g id="Layer_1-2">
		<path class="st0" d="M23.9,20.9h3.5v-4.1l-4.1-4.2c2.2-2.9,1.9-7-0.6-9.6L19.5,0l0,0l-1.4,1.4c1.1,1.1,1.8,2.7,1.8,4.3
			c0,1-0.3,1.9-0.8,2.8l-3.8-3.8l-0.7,0.7c-2.1,2.1-2.1,5.6,0,7.7c0,0,0,0,0,0l0.3,0.3c-3.3,0.9-5.6,3.9-5.6,7.3v16.2h2V20.7
			c0-3.1,2.5-5.6,5.6-5.7h2.4L16,11.7c-1.1-1.1-1.3-2.8-0.6-4.2l3.8,3.8l0.7-0.7c1.3-1.3,2-3.1,2-4.9c0-0.2,0-0.3,0-0.5
			c1.5,2.1,1.3,5-0.6,6.9l-0.7,0.7l4.9,4.9V19h-1.6c-2.4,0-4.3,1.9-4.3,4.3v13.6h1.9V24.3c2.3,0.5,3.9,2.5,3.9,4.8v7.7h1.9v-7.7
			c0-3.3-2.4-6.2-5.7-6.7C22.1,21.5,23,20.9,23.9,20.9z"/>
	</g>
</g>
</svg>
