<svg xmlns="http://www.w3.org/2000/svg" viewBox="0 0 18.12 36.83"><defs><style>.cls-1{fill:#0c233f;}</style></defs><g id="Layer_2" data-name="Layer 2"><g id="Layer_1-2" data-name="Layer 1"><path class="cls-1" d="M14.59,20.91h3.53V16.84L14,12.69a7.3,7.3,0,0,0-.65-9.58L10.16,0h0L8.79,1.38a6.12,6.12,0,0,1,1.78,4.26,5.11,5.11,0,0,1-.79,2.78L6,4.64l-.69.69a5.45,5.45,0,0,0,0,7.71l.27.27A7.66,7.66,0,0,0,0,20.66V36.83H2V20.66A5.68,5.68,0,0,1,7.63,15H10L6.67,11.66a3.51,3.51,0,0,1-.59-4.18l3.78,3.77.68-.69a6.81,6.81,0,0,0,2-4.93c0-.16,0-.31,0-.47a5.34,5.34,0,0,1-.57,6.89l-.69.69,4.94,4.91V19H14.59a4.28,4.28,0,0,0-4.27,4.28V36.83h1.94V24.31a4.9,4.9,0,0,1,3.92,4.79v7.73h1.94V29.1a6.83,6.83,0,0,0-5.69-6.73A2.33,2.33,0,0,1,14.59,20.91Z"/></g></g></svg>